<svg xmlns="http://www.w3.org/2000/svg" fill="none" viewBox="0 0 300 300">
  <path fill="url(#paint0_linear_5549_19292)" d="M250.877 194.576c14.894-9.302 23.167-16.807 24.568-22.34.25-.977-.106-2.007-.904-2.653-.994-.785-22.208-17.418-42.907-22.218a2.66 2.66 0 0 0-.835-1.047l-37.102-26.703-20.628-20.543a16.4 16.4 0 0 0-4.225-3.037L141.7 82.458a16.64 16.64 0 0 0-7.438-1.763h-18.657L76.337 33.99a16.6 16.6 0 0 0-5.77-4.38l-8.397-3.84a8.64 8.64 0 0 0-4.917-.663l-7.012 1.151a4.47 4.47 0 0 0-3.569 3.177l-4.03 14.573-5.165 9.425c-1.616 2.932-2.68 4.904-2.716 8.831a1.55 1.55 0 0 0-.16.594c-.87 12.234 3.87 24.225 4.083 24.731.266.663.923 1.1 1.65 1.1h.178a1.724 1.724 0 0 0 1.563-1.432l1.349-7.505 3.674 36.041v8.483a.7.7 0 0 1-.142.419l-8.06 11.379-1.615 1.274c-1.81-5.951-1.952-11.955-1.952-12.06 0-.558-.284-1.065-.728-1.379a1.84 1.84 0 0 0-1.562-.262c-8.841 2.688-9.48 18.955-9.516 22.882 0 .017 0 .052-.017.069-.018.088-.054.175-.071.262v.506c0 .105.017.192.035.297 0 .052 0 .105.018.157l4.136 17.593c.089.419.302.803.586 1.117l22.794 25.604 3.746 10.612c-3.533 1.832-5.965 5.497-5.965 9.686 0 3.473 1.669 6.58 4.243 8.587-5.166 9.861-8.646 26.389-9.445 30.421a7 7 0 0 0-.16.82c-.16 1.379.835 2.636 2.237 2.845s2.717-.715 2.983-2.077c.035-.209.089-.436.124-.663.692-2.339 4.616-6.632 9.55-11.1-4.774 14.451-2.005 29.95-1.863 30.769.213 1.169 1.207 2.042 2.396 2.13 1.19.069 2.308-.646 2.681-1.762 4.296-12.602 9.995-24.296 13.119-27.35 2.556 4.084 8.184 14.626 7.119 26.302-.107 1.064.479 2.076 1.438 2.548.976.489 2.13.331 2.947-.384l9.089-8.028 2.414 7.644a2.6 2.6 0 0 0 2.45 1.815c.657 0 1.313.018 1.97.018 17.61 0 31.937-5.935 41.044-11.099a11.18 11.18 0 0 0 8.13 3.49c1.971 0 3.817-.507 5.415-1.398 3.674 3.928 7.527 7.035 8.272 7.627a2.64 2.64 0 0 0 2.929.246c3.693-2.007 8.433-7.54 11.291-11.153 1.1 2.741 2.13 6.667 2.663 9.373.159.819.71 1.518 1.491 1.868a2.68 2.68 0 0 0 2.414-.107c4.261-2.426 7.35-7.974 9.178-12.217 1.189 2.845 1.953 6.004 2.237 7.453.16.889.781 1.623 1.633 1.954a2.65 2.65 0 0 0 2.539-.347c7.438-5.482 11.024-15.971 12.568-22.114 5.575 6.684 9.658 18.831 10.918 23.667a2.63 2.63 0 0 0 2.556 1.954h.071c1.225-.035 2.273-.908 2.504-2.095.567-2.861 5.875-27.209 7.757-35.796l12.036 4.59c.87.332 1.882.192 2.61-.401a2.56 2.56 0 0 0 .941-2.426c-1.083-6.58-2.929-11.606-4.545-15.045 21.002 3.683 26.309-7.4 26.54-7.906.496-1.1.16-2.409-.817-3.124l-23.593-17.418zm-194.388 28.31h-.035zm-2.307-1.048s-.09-.052-.142-.087c.053.035.088.052.142.087m1.136.594-.178-.088c.053.035.107.053.178.088m103.407 42.115s.124-.106.177-.157c-.053.051-.124.104-.177.157m-.994.803s.124-.088.177-.141c-.053.053-.124.088-.177.141m1.988-1.798.053-.053c0 .018-.035.034-.053.053m-17.415-.646v-.019zM55.85 202.291s.16-.053.231-.088c-.07.035-.16.053-.23.088m1.172-.384c.106-.035.213-.053.302-.07-.107.017-.213.052-.302.07m1.278-.262c.107 0 .195-.035.302-.053-.107 0-.195.035-.302.053m60.766 10.123s0-.105.018-.157c0 .052 0 .104-.018.157m99.662-11.676s-.018-.157-.036-.227c0 .07.018.157.036.227"/>
  <path fill="#fff" d="M207.704 207.3c3.245 0 5.876-2.586 5.876-5.777 0-3.19-2.631-5.777-5.876-5.777s-5.876 2.587-5.876 5.777 2.631 5.777 5.876 5.777M272.891 173.354c-.161 0-.321-.017-.481-.07-.478-.122-47.575-12.933-77.612-12.461-.977 0-1.793-.751-1.793-1.728 0-.978.763-1.763 1.757-1.763 30.588-.454 78.129 12.462 78.607 12.584a1.76 1.76 0 0 1 1.243 2.147c-.212.768-.923 1.274-1.705 1.274zM140.547 259.346c-8.557 4.817-22.066 10.454-38.398 10.472l-3.054-9.706a2.62 2.62 0 0 0-1.81-1.727c-.87-.226-1.793 0-2.468.577l-7.705 6.789c-.923-14.068-9-25.011-9.39-25.535-.533-.715-1.403-1.099-2.326-1.047-5.095.384-10.456 10.315-14.557 20.177.107-8.117 1.651-18.815 7.811-26.634a2.533 2.533 0 0 0-.213-3.404 2.66 2.66 0 0 0-3.462-.244c-1.917 1.431-8.112 6.161-13.367 11.362 1.669-6.126 3.817-12.758 6.178-17.192a11.25 11.25 0 0 1-4.758-2.164c-5.166 9.861-8.645 26.389-9.444 30.421-.071.28-.124.559-.16.821-.16 1.378.834 2.635 2.237 2.844 1.402.21 2.716-.715 2.982-2.077.036-.209.089-.436.124-.663.693-2.339 4.616-6.632 9.551-11.1-4.775 14.451-2.006 29.949-1.864 30.771.213 1.169 1.207 2.041 2.397 2.129 1.19.07 2.308-.645 2.68-1.764 4.296-12.601 9.995-24.294 13.12-27.349 2.556 4.084 8.183 14.625 7.118 26.303a2.56 2.56 0 0 0 1.438 2.546c.976.491 2.13.334 2.947-.381l9.09-8.031 2.413 7.646a2.6 2.6 0 0 0 2.45 1.815c.657 0 1.314.016 1.971.016 17.61 0 31.936-5.933 41.043-11.099a11 11 0 0 1-2.61-4.572z"/>
  <path fill="#fff" d="M250.878 194.576c14.893-9.302 23.166-16.807 24.57-22.34.247-.977-.109-2.007-.907-2.653-.993-.785-22.208-17.418-42.907-22.218a2.65 2.65 0 0 0-.834-1.047l-37.103-26.703-20.628-20.543a16.4 16.4 0 0 0-4.225-3.037l-27.143-13.578a16.64 16.64 0 0 0-7.438-1.763h-18.658L76.355 33.99a16.6 16.6 0 0 0-5.77-4.38l-8.414-3.84a8.64 8.64 0 0 0-4.918-.663l-7.012 1.151a4.47 4.47 0 0 0-3.568 3.177l-4.03 14.573-5.166 9.425c-1.615 2.932-2.68 4.904-2.716 8.831a1.55 1.55 0 0 0-.16.594c-.87 12.234 3.87 24.225 4.083 24.731.267.663.923 1.1 1.651 1.1h.178a1.72 1.72 0 0 0 1.562-1.432l1.35-7.505 3.674 36.041v8.483a.7.7 0 0 1-.142.419l-8.06 11.379-1.615 1.274c-1.81-5.951-1.953-11.955-1.953-12.06 0-.558-.284-1.065-.728-1.379a1.84 1.84 0 0 0-1.562-.262c-8.84 2.688-9.48 18.955-9.497 22.882a3 3 0 0 0-.09.384c-.195 1.413.817 2.722 2.273 2.914l45.588 5.987c.48.052.94.07 1.42.07 1.864 0 3.728-.385 5.45-1.1l9.888-4.206a6.02 6.02 0 0 0 3.107-3.037l7.9-17.732a5.68 5.68 0 0 0 .124-4.381c-4.616-12.27-20.042-46.181-30.889-57.247-5.486-5.602-21.41-7.522-28.031-8.098.284-1.292.87-2.356 1.864-4.172l3.799-6.946 9.142 2.094c.125.018.231.053.355.053l8.77.803c.373.035.728.052 1.1.052 3.125 0 6.09-1.24 8.273-3.473l4.368-4.468 34.368 40.928a2.66 2.66 0 0 0 2.041.942h19.901c1.739 0 3.497.419 5.041 1.187l27.144 13.579a11 11 0 0 1 2.876 2.059l20.77 20.682c.106.105.213.192.319.279l30.907 22.253c-19.492-1.745-29.38-2.513-29.487-2.53-1.473-.088-2.716.96-2.84 2.373-.106 1.431.977 2.671 2.414 2.793.107 0 11.131.872 32.895 2.827 18.037 1.623 39.536 16.72 45.394 21.066-2.503 4.433-11.274 11.449-24.179 19.286-6.143 3.735-13.262 5.934-20.558 6.388l-6.55.401c.266.943.426 1.955.426 2.985 0 .75-.071 1.483-.231 2.199l6.675-.402a50.5 50.5 0 0 0 20.717-5.847l23.219 17.14c-2.484 2.46-9.194 6.388-24.959 2.111a2.67 2.67 0 0 0-2.876 1.03 2.535 2.535 0 0 0 .053 3.002c.036.053 3.515 4.765 5.699 13.596l-10.421-3.979a2.63 2.63 0 0 0-2.201.14 2.62 2.62 0 0 0-1.331 1.745c-.214 1.012-3.941 18.029-6.391 29.303-2.699-6.998-7.101-16.004-13.013-20.193a2.71 2.71 0 0 0-2.574-.279 2.6 2.6 0 0 0-1.58 2.025c-.017.139-1.953 12.95-8.432 20.56-.941-3.141-2.521-7.192-4.9-9.791a2.61 2.61 0 0 0-2.538-.786 2.66 2.66 0 0 0-1.953 1.798c-.728 2.444-2.911 8.184-5.84 11.851-.959-3.648-2.557-8.43-4.687-10.525a2.64 2.64 0 0 0-2.077-.75 2.66 2.66 0 0 0-1.935 1.081c-1.846 2.532-6.87 8.953-10.527 11.833-1.953-1.657-4.19-3.734-6.196-5.898-.976 1.465-2.308 2.671-3.87 3.544 3.675 3.926 7.527 7.032 8.273 7.625a2.64 2.64 0 0 0 2.929.245c3.692-2.007 8.432-7.539 11.29-11.153 1.101 2.741 2.131 6.667 2.663 9.373.16.82.71 1.519 1.491 1.868s1.669.313 2.415-.106c4.26-2.426 7.349-7.975 9.178-12.216 1.189 2.845 1.952 6.003 2.236 7.452.16.891.782 1.623 1.634 1.956.852.331 1.81.19 2.538-.35 7.439-5.481 11.024-15.97 12.569-22.114 5.574 6.685 9.657 18.832 10.917 23.668a2.63 2.63 0 0 0 2.557 1.953h.071c1.225-.034 2.272-.907 2.503-2.095.568-2.861 5.876-27.208 7.758-35.795l12.036 4.59c.869.332 1.881.192 2.609-.401.728-.576 1.101-1.519.941-2.426-1.083-6.58-2.929-11.607-4.544-15.045 21.001 3.683 26.308-7.4 26.539-7.906.496-1.1.16-2.409-.817-3.124l-23.592-17.419zm-223.75-49.794c.23-5.044 1.366-13.194 4.846-16.51.39 4.258 1.633 12.217 5.574 17.889L27.145 144.8zm33.179 4.364c.266-4.905 1.384-12.357 4.527-15.743.035 4.381.798 11.973 5.183 17.017zm4.597-76.952c1.456 1.554 3.018 3.578 4.651 5.952l-5.591 13.98c-.746-4.119-.995-10.594.94-19.914zm-3.195 28.92c.497.664 1.278 1.03 2.113 1.03.124 0 .23 0 .355-.017a2.61 2.61 0 0 0 2.094-1.623l6.764-16.93c8.273 13.613 17.29 33.248 21.196 43.633a.7.7 0 0 1 0 .506l-7.9 17.732a.69.69 0 0 1-.355.35l-9.888 4.206c-.248.104-.514.192-.78.279-8.202-4.957-6.8-19.827-6.782-19.966a1.73 1.73 0 0 0-.64-1.519 1.81 1.81 0 0 0-1.65-.314c-7.474 2.269-9.09 14.155-9.427 20.193l-13.935-1.832c-1.42-1.187-2.556-2.74-3.497-4.486l3.16-2.478c.195-.157.372-.332.514-.541l8.29-11.694a5.8 5.8 0 0 0 1.084-3.386v-8.482c0-.244 0-.471-.036-.663l-4.988-48.974c4.704.733 9.48 1.78 12.959 3.176-.178.262-.32.559-.39.89-4.812 21.94 1.508 30.544 1.792 30.91zm-19.58-35.657a2.4 2.4 0 0 0-.054.803l.071.733-2.254 12.497c-.977-3.927-1.918-9.11-1.811-14.382q1.89.132 4.047.367zm32.309-25.324-4.67 4.782a6.25 6.25 0 0 1-5.059 1.85l-8.592-.803-8.024-1.833 3.533-12.828 6.497-1.064c.621-.105 1.26 0 1.829.244l8.414 3.84a11.1 11.1 0 0 1 3.924 2.984l2.307 2.74s-.106.053-.142.105z"/>
  <path fill="#fff" d="m119.706 209.637-8.61-1.186c-1.562-.175-2.947-.856-3.976-1.955l-.036-.035-22.439-25.447c-3.586-4.049-8.29-6.824-13.616-8.028l-37.564-8.395-.87-.978-3.976-16.964c-.32-1.397-1.74-2.252-3.16-1.938-1.42.315-2.308 1.711-1.97 3.107l4.136 17.593c.089.419.302.803.586 1.117l22.794 25.604 3.745 10.611a11.1 11.1 0 0 1 5.13-1.256l-4.082-11.519a2.6 2.6 0 0 0-.497-.856l-15.924-17.889 30.48 6.807c4.226.942 7.954 3.141 10.794 6.353l22.439 25.446s.018.018.018.035c1.828 2.077 4.456 3.386 7.278 3.7l8.539 1.17a10 10 0 0 1-.053-1.03c0-1.449.302-2.827.816-4.101zM161.122 130.052a2.66 2.66 0 0 1-2.148-1.082l-4.776-6.493-17.219-7.976a22 22 0 0 1-6.746-4.835l-2.841-2.984a2.6 2.6 0 0 1-.497-2.81 2.65 2.65 0 0 1 2.415-1.554h15.231c.852 0 1.633.402 2.131 1.083l11.361 15.463s.035.053.071.087l5.148 6.999a2.56 2.56 0 0 1-.586 3.613 2.65 2.65 0 0 1-1.544.489m-25.581-22.55a17.3 17.3 0 0 0 3.674 2.321l8.593 3.98-4.634-6.301h-7.651zM159.471 200.301a1.82 1.82 0 0 1-1.384-.646l-23.345-28.536a1.73 1.73 0 0 1 .266-2.461c.764-.594 1.882-.489 2.503.262l23.345 28.536a1.73 1.73 0 0 1-.266 2.461c-.32.261-.728.384-1.119.384M184.537 189.845a1.82 1.82 0 0 1-1.384-.645l-23.344-28.536a1.727 1.727 0 0 1 .266-2.461c.763-.594 1.881-.489 2.503.261l23.344 28.537c.621.75.497 1.85-.266 2.46-.32.262-.728.384-1.119.384M184.537 211.435a1.82 1.82 0 0 1-1.384-.646l-23.344-28.536a1.726 1.726 0 0 1 .266-2.46c.763-.594 1.881-.489 2.503.261l23.344 28.536a1.73 1.73 0 0 1-.266 2.461c-.32.262-.728.384-1.119.384M196.218 244.021c-.515 0-1.03-.227-1.385-.645l-23.344-28.537a1.73 1.73 0 0 1 .266-2.46c.764-.594 1.882-.489 2.504.261l23.344 28.536c.621.751.497 1.85-.267 2.461a1.77 1.77 0 0 1-1.118.384M207.704 212.466c-6.142 0-11.148-4.922-11.148-10.96s5.006-10.961 11.148-10.961c6.143 0 11.149 4.922 11.149 10.961 0 6.038-5.006 10.96-11.149 10.96m0-16.72c-3.231 0-5.876 2.583-5.876 5.777s2.627 5.777 5.876 5.777 5.876-2.583 5.876-5.777-2.627-5.777-5.876-5.777"/>
  <path fill="#fff" d="M59.934 223.427c-6.143 0-11.149-4.922-11.149-10.961 0-6.038 5.006-10.96 11.149-10.96s11.148 4.922 11.148 10.96-5.006 10.961-11.148 10.961m0-16.72c-3.231 0-5.876 2.583-5.876 5.777s2.627 5.777 5.876 5.777c3.248 0 5.876-2.583 5.876-5.777s-2.628-5.777-5.876-5.777M151.27 267.391c-6.143 0-11.149-4.923-11.149-10.962s5.006-10.96 11.149-10.96 11.148 4.922 11.148 10.96-5.006 10.962-11.148 10.962m0-16.721c-3.231 0-5.877 2.583-5.877 5.777s2.628 5.778 5.877 5.778 5.876-2.584 5.876-5.778-2.628-5.777-5.876-5.777M130.02 224.701c6.158 0 11.149-4.908 11.149-10.961 0-6.054-4.991-10.961-11.149-10.961s-11.148 4.907-11.148 10.961c0 6.053 4.991 10.961 11.148 10.961"/>
  <defs>
    <linearGradient id="paint0_linear_5549_19292" x1="146.831" x2="152.665" y1="56.731" y2="291.325" gradientUnits="userSpaceOnUse">
      <stop stop-color="#fb203b"/>
      <stop offset="1" stop-color="#fb203b" stop-opacity=".1"/>
    </linearGradient>
  </defs>
</svg>
